<svg width="0" height="0" class="hidden">
  <symbol viewBox="0 0 512 512" xmlns="http://www.w3.org/2000/svg" id="food-and-restaurant">
    <path d="M437.02 74.98C388.668 26.63 324.379 0 256 0S123.332 26.629 74.98 74.98C26.63 123.332 0 187.621 0 256s26.629 132.668 74.98 181.02C123.332 485.37 187.621 512 256 512s132.668-26.629 181.02-74.98C485.37 388.668 512 324.379 512 256s-26.629-132.668-74.98-181.02zm-10.754 351.286c-45.48 45.48-105.95 70.527-170.266 70.527s-124.785-25.047-170.266-70.527S15.207 320.316 15.207 256 40.254 131.215 85.734 85.734 191.684 15.207 256 15.207s124.785 25.047 170.266 70.527S496.793 191.684 496.793 256s-25.047 124.785-70.527 170.266zm0 0"></path>
    <path d="M450.926 126.035a121.24 121.24 0 0 0-50.86-6.992c2.817-16.89 2.075-34.371-2.433-51.219-1.016-3.793-4.754-6.195-8.621-5.531-19.11 3.254-36.977 10.96-52.293 22.45-6.672-17.833-17.508-34.055-31.84-47.118a7.608 7.608 0 0 0-10.246 0 121.103 121.103 0 0 0-24.844 31.758c-4.574-.328-9.191-.5-13.785-.5-51.996 0-102.063 21.894-137.363 60.066a7.602 7.602 0 0 0 .418 10.746 7.573 7.573 0 0 0 5.16 2.024c2.047 0 4.086-.82 5.586-2.442 32.433-35.07 78.43-55.187 126.199-55.187 2.32 0 4.652.062 6.976.152a120.86 120.86 0 0 0-7.87 42.844c0 33.96 14.406 66.566 39.527 89.457a7.559 7.559 0 0 0 2.496 1.516l.023.011a120.93 120.93 0 0 0 41.442 7.305c19.37 0 38.68-4.629 56.144-13.77a120.592 120.592 0 0 0 22.528-15.273c7.058 19.04 10.644 39.063 10.644 59.668 0 94.793-77.117 171.91-171.91 171.91-94.793 0-171.91-77.117-171.91-171.91 0-33.453 9.613-65.867 27.8-93.742a7.605 7.605 0 0 0-12.738-8.309c-19.804 30.352-30.27 65.64-30.27 102.055 0 103.176 83.938 187.117 187.118 187.117 103.176 0 187.117-83.941 187.117-187.117 0-24.711-4.723-48.66-14.05-71.262 12.511-14.097 21.722-31.066 26.6-49.629 1-3.8-1.058-7.734-4.745-9.078zM369.8 156.246c-11.45 17.848-27.977 31.715-47.153 40.004 14.016-20.14 21.754-44.285 21.754-69.168 0-9.035-1.027-17.973-3-26.664a105.409 105.409 0 0 1 43.153-21.7c5.222 26.657-.012 54.544-14.754 77.528zm-99.485-29.164c0-27.3 10.649-53.602 29.442-73.219 18.789 19.617 29.441 45.918 29.441 73.219s-10.652 53.606-29.441 73.223c-18.793-19.618-29.442-45.922-29.442-73.223zm117.371 71.047c-17.964 9.402-38.16 13.34-58.05 11.656 21.52-9.527 40.062-25.215 52.965-45.328a120.873 120.873 0 0 0 13.777-29.762 105.804 105.804 0 0 1 42.535 3.399c-8.676 25.742-27.039 47.375-51.227 60.035zm0 0"></path>
    <path d="M194.168 177.457c-11.828 0-22.352 5.684-28.992 14.457-6.64-8.773-17.16-14.457-28.988-14.457-20.04 0-36.34 16.305-36.34 36.344 0 18.41 13.77 33.66 31.547 36.012a36.184 36.184 0 0 0-2.813 14.015c0 20.04 16.305 36.34 36.34 36.34 20.039 0 36.344-16.3 36.344-36.34 0-4.941-.996-9.652-2.79-13.953 18.012-2.137 32.032-17.496 32.032-36.074 0-20.04-16.301-36.344-36.34-36.344zm-79.113 36.344c0-11.653 9.48-21.133 21.132-21.133s21.133 9.48 21.133 21.133c0 11.652-9.48 21.133-21.132 21.133s-21.133-9.48-21.133-21.133zm49.867 71.16c-11.649 0-21.133-9.48-21.133-21.133s9.484-21.133 21.133-21.133c11.652 0 21.137 9.48 21.137 21.133s-9.485 21.133-21.137 21.133zm29.246-50.027c-11.652 0-21.133-9.48-21.133-21.133 0-11.653 9.48-21.133 21.133-21.133 11.652 0 21.133 9.48 21.133 21.133 0 11.652-9.48 21.133-21.133 21.133zm168.898 60.507a7.605 7.605 0 0 0 3.692-10.101c-4.324-9.309-10.23-17.75-17.567-25.094-16.613-16.613-38.699-25.762-62.191-25.762-23.488 0-45.574 9.149-62.188 25.762-16.613 16.61-25.761 38.7-25.761 62.191s9.152 45.579 25.761 62.184c16.614 16.613 38.7 25.762 62.188 25.762 23.492 0 45.578-9.149 62.191-25.762 17.668-17.668 27.004-42.113 25.614-67.066-.235-4.196-3.828-7.395-8.016-7.168a7.6 7.6 0 0 0-7.168 8.011 72.805 72.805 0 0 1-21.184 55.47c-13.742 13.741-32.007 21.308-51.433 21.308-19.43 0-37.695-7.567-51.438-21.309-13.738-13.734-21.304-32-21.304-51.43s7.566-37.699 21.304-51.437c13.743-13.742 32.008-21.309 51.438-21.309 19.426 0 37.691 7.567 51.43 21.305 6.07 6.078 10.96 13.063 14.535 20.754a7.603 7.603 0 0 0 10.097 3.691zm0 0"></path>
    <path d="M243.887 301.176c-6.867 2.453-11.578 8.488-12.301 15.746-1.652 16.683 4.195 33.043 16.043 44.894 10.523 10.52 24.61 16.309 39.32 16.309a56.74 56.74 0 0 0 5.567-.277c7.257-.72 13.293-5.434 15.746-12.301 2.453-6.863.777-14.324-4.38-19.477l-40.515-40.52c-5.152-5.152-12.617-6.827-19.48-4.374zm49.242 55.648c1.348 1.344 1.086 2.836.812 3.606-.222.62-.953 2.09-2.925 2.285-12.137 1.203-24.024-3.043-32.633-11.653-8.613-8.613-12.863-20.511-11.66-32.64.195-1.973 1.664-2.703 2.285-2.926a3.677 3.677 0 0 1 1.238-.223c.719 0 1.567.235 2.367 1.032zm30.637-12.008c2.113 0 4.257-.363 6.343-1.109 6.868-2.453 11.582-8.484 12.305-15.742 1.664-16.684-4.18-33.055-16.031-44.906-11.852-11.852-28.219-17.7-44.91-16.036-7.258.723-13.29 5.438-15.743 12.305-2.449 6.86-.773 14.32 4.38 19.473l40.527 40.531c3.586 3.582 8.289 5.484 13.129 5.484zm-43.715-60.37c.222-.626.953-2.094 2.93-2.29a41.623 41.623 0 0 1 4.058-.203c10.695 0 20.938 4.211 28.59 11.86 8.617 8.617 12.863 20.515 11.652 32.644-.195 1.977-1.664 2.707-2.285 2.93-.77.277-2.258.535-3.605-.809l-40.528-40.531c-1.347-1.344-1.086-2.836-.812-3.602zm0 0"></path>
  </symbol>
  <symbol viewBox="0 -25 480 480" xmlns="http://www.w3.org/2000/svg" id="cake">
    <path d="M456 80H336v16h120a8.005 8.005 0 0 1 8 8v280a8.005 8.005 0 0 1-8 8H284.43a23.98 23.98 0 0 0-12.344 3.422l-27.961 16.777a8.003 8.003 0 0 1-8.242.004l-27.969-16.781A23.98 23.98 0 0 0 195.57 392H24a8.005 8.005 0 0 1-8-8V104a8.005 8.005 0 0 1 8-8h120V80H24C10.75 80.016.016 90.75 0 104v280c.016 13.25 10.75 23.984 24 24h171.57c1.45 0 2.868.395 4.11 1.14l27.976 16.786a23.98 23.98 0 0 0 24.696-.004l27.968-16.781a7.975 7.975 0 0 1 4.11-1.141H456c13.25-.016 23.984-10.75 24-24V104c-.016-13.25-10.75-23.984-24-24zm0 0"></path>
    <path d="M56 344v-16h-8c-8.832.012-15.988 7.168-16 16v8c.016 13.25 10.75 23.984 24 24h144c13.25-.016 23.984-10.75 24-24v-8c-.012-8.832-7.168-15.988-16-16h-8v16h8v8a8.005 8.005 0 0 1-8 8H56a8.005 8.005 0 0 1-8-8v-8zm368 16H280a8.005 8.005 0 0 1-8-8v-8h8v-16h-8c-8.832.012-15.988 7.168-16 16v8c.016 13.25 10.75 23.984 24 24h144c13.25-.016 23.984-10.75 24-24v-8c-.012-8.832-7.168-15.988-16-16h-8v16h8v8a8.005 8.005 0 0 1-8 8zm0 0"></path>
    <path d="M200 264h-8v-16c-.012-8.832-7.168-15.988-16-16H80c-8.832.012-15.988 7.168-16 16v56c.027 22.082 17.918 39.973 40 40h48c19-.027 35.367-13.39 39.191-32H200c13.254 0 24-10.746 24-24s-10.746-24-24-24zm-24 40c-.016 13.25-10.75 23.984-24 24h-48c-13.25-.016-23.984-10.75-24-24v-56h96zm24-8h-8v-16h8a8 8 0 0 1 0 16zm152-72c-13.25.016-23.984 10.75-24 24a23.69 23.69 0 0 0 1.477 8H312c-8.832.012-15.988 7.168-16 16v56c.012 8.832 7.168 15.988 16 16h80c8.832-.012 15.988-7.168 16-16v-56c-.012-8.832-7.168-15.988-16-16h-17.473a23.81 23.81 0 0 0 1.473-8c-.016-13.25-10.75-23.984-24-24zm-8 24a8 8 0 1 1 8 8 8.005 8.005 0 0 1-8-8zm48 80h-80v-56h80zM240 160c44.184 0 80-35.816 80-80S284.184 0 240 0s-80 35.816-80 80c.05 44.16 35.84 79.95 80 80zm0-144c35.348 0 64 28.652 64 64s-28.652 64-64 64-64-28.652-64-64c.04-35.328 28.672-63.96 64-64zm96.164 103.598l-11.312 11.312 16.976 16.973-29.703 4.242-4.242 29.7-16.969-16.973-11.312 11.312 22.617 22.625a12.006 12.006 0 0 0 20.375-6.785l3.672-25.738 25.742-3.676a12 12 0 0 0 6.789-20.363zm-192.328 0l-22.64 22.632a12 12 0 0 0 6.796 20.36l25.742 3.676 3.672 25.746c.64 4.5 3.774 8.254 8.086 9.691a12 12 0 0 0 12.281-2.91l22.625-22.629-11.312-11.312-16.969 16.972-4.242-29.699-29.703-4.242 16.976-16.973zm0 0"></path>
  </symbol>
  <symbol viewBox="0 0 60 60" xmlns="http://www.w3.org/2000/svg" id="healthcare-and-medical">
    <path d="M30 0C13.431 0 0 13.431 0 30s13.431 30 30 30 30-13.431 30-30C59.981 13.44 46.56.019 30 0zm0 58C14.536 58 2 45.464 2 30S14.536 2 30 2s28 12.536 28 28c-.018 15.457-12.543 27.982-28 28z"></path>
    <path d="M32 47c-.552 0-1 .448-1 1s-.448 1-1 1a1 1 0 0 0 0 2 3 3 0 0 0 3-3 1 1 0 0 0-1-1z"></path>
    <path d="M43 38a5.006 5.006 0 0 0-5 5c.005.274.032.547.083.817l-1.98.766a7.008 7.008 0 0 0-5.1-3.5V38.9a5 5 0 1 0-2 0v2.18a7.008 7.008 0 0 0-5.1 3.5l-1.98-.766c.048-.269.074-.541.077-.814a5.031 5.031 0 1 0-.8 2.685l1.975.765a7 7 0 1 0 13.642 0l1.975-.765A5 5 0 1 0 43 38zm-26 8a3 3 0 1 1 0-6 3 3 0 0 1 0 6zm10-12a3 3 0 1 1 6 0 3 3 0 0 1-6 0zm3 19a5 5 0 1 1 0-10 5 5 0 0 1 0 10zm13-7a3 3 0 1 1 0-6 3 3 0 0 1 0 6zM20.534 32.705a1 1 0 0 0 0-1.332c-.12-.135-2.985-3.294-6.654-3.294-.2 0-.386.013-.576.03l2.271-2.271a9.425 9.425 0 0 0 5.908 2.562c3.668 0 6.534-3.159 6.655-3.293a1 1 0 0 0 0-1.333c-.12-.135-2.987-3.295-6.655-3.295-.2 0-.386.013-.577.03l2.277-2.276a9.423 9.423 0 0 0 5.909 2.559c3.669 0 6.534-3.16 6.654-3.3a1 1 0 0 0 0-1.332 11.766 11.766 0 0 0-3.682-2.63c2.463-2.605 2.262-6.729 2.251-6.906a1 1 0 0 0-.94-.941c-.176-.007-4.3-.212-6.906 2.253a11.762 11.762 0 0 0-2.63-3.683 1 1 0 0 0-1.332 0c-.135.121-3.3 2.986-3.3 6.654a9.415 9.415 0 0 0 2.557 5.906L19.5 19.089c.016-.189.029-.378.029-.572 0-3.669-3.159-6.534-3.294-6.654a1 1 0 0 0-1.332 0c-.134.12-3.294 2.985-3.294 6.654a9.415 9.415 0 0 0 2.557 5.906l-2.269 2.27a6.37 6.37 0 0 0 .03-.573c0-3.668-3.16-6.534-3.295-6.654a1 1 0 0 0-1.332 0c-.14.12-3.3 2.986-3.3 6.654a9.422 9.422 0 0 0 2.558 5.907l-1 1a1 1 0 1 0 1.414 1.414l1-1A9.425 9.425 0 0 0 13.88 36c3.669 0 6.534-3.16 6.654-3.295zm5.41-8.267a7.331 7.331 0 0 1-4.461 1.962 7.38 7.38 0 0 1-4.473-1.962 7.346 7.346 0 0 1 4.473-1.959 7.37 7.37 0 0 1 4.461 1.959zm3.148-5.65a7.381 7.381 0 0 1-4.472-1.961 7.381 7.381 0 0 1 4.472-1.96 7.367 7.367 0 0 1 4.459 1.96 7.364 7.364 0 0 1-4.459 1.961zm-1.34-9.319A7.35 7.35 0 0 1 32.3 7.706a7.317 7.317 0 0 1-1.766 4.542 4.558 4.558 0 0 1-.838.65c-.2-.018-.4-.031-.6-.031a7.16 7.16 0 0 0-2.396.433 7.2 7.2 0 0 0 .433-2.392c0-.2-.013-.4-.032-.6.184-.304.403-.585.651-.839zM23.173 6.45a7.364 7.364 0 0 1 1.961 4.458 7.378 7.378 0 0 1-1.961 4.471 7.378 7.378 0 0 1-1.961-4.471 7.364 7.364 0 0 1 1.961-4.458zm-7.607 7.606a7.323 7.323 0 0 1 1.958 4.461 7.378 7.378 0 0 1-1.96 4.471 7.378 7.378 0 0 1-1.96-4.471c.13-1.667.82-3.24 1.962-4.461zm-7.6 7.606a7.364 7.364 0 0 1 1.956 4.458 7.378 7.378 0 0 1-1.961 4.471A7.378 7.378 0 0 1 6 26.12a7.364 7.364 0 0 1 1.961-4.458zm5.919 8.417a7.367 7.367 0 0 1 4.459 1.96A7.364 7.364 0 0 1 13.88 34a7.381 7.381 0 0 1-4.472-1.961 7.381 7.381 0 0 1 4.472-1.96z"></path>
    <path d="M37.477 14.148a1 1 0 0 0-.33 1.374v.007a13.912 13.912 0 0 1 1.664 8.947c-.073.528-.2 1.032-.407 1.919-.173.7-.255 1.42-.244 2.142a7.94 7.94 0 0 0 10.1 7.167 7.357 7.357 0 0 0 4.972-4.242c1.539-3.554.51-7.823-.84-10.4-3.842-7.343-14.061-7.44-14.915-6.914zm13.15 7.843c1.235 2.358 1.954 5.955.775 8.676a5.347 5.347 0 0 1-3.672 3.11 5.939 5.939 0 0 1-7.568-5.312 6.568 6.568 0 0 1 .2-1.638c.191-.825.345-1.431.435-2.077a16.524 16.524 0 0 0-1.145-8.744c4.527.241 8.924 2.073 10.975 5.985z"></path>
    <path d="M46.965 31.876a.983.983 0 0 0 .275-.039 3.636 3.636 0 0 0 2.622-2.931 8.858 8.858 0 0 0-.249-4.081 1 1 0 1 0-1.924.549 6.841 6.841 0 0 1 .212 3.135 1.655 1.655 0 0 1-1.212 1.405 1 1 0 0 0 .276 1.962z"></path>
  </symbol>
  <symbol viewBox="0 0 300 300" xmlns="http://www.w3.org/2000/svg" id="food">
    <path d="M65.828 60.937c2.211 0 4-1.791 4-4v-8c0-2.209-1.789-4-4-4s-4 1.791-4 4v8c0 2.209 1.789 4 4 4zm0 8c-2.211 0-4 1.791-4 4v8c0 2.209 1.789 4 4 4s4-1.791 4-4v-8a4 4 0 0 0-4-4zm-16 0h8c2.211 0 4-1.791 4-4s-1.789-4-4-4h-8c-2.211 0-4 1.791-4 4s1.789 4 4 4zm24 0h8c2.211 0 4-1.791 4-4s-1.789-4-4-4h-8c-2.211 0-4 1.791-4 4s1.789 4 4 4zm174 88c7.719 0 14-6.281 14-14s-6.281-14-14-14-14 6.281-14 14 6.281 14 14 14zm0-20c3.309 0 6 2.691 6 6s-2.691 6-6 6-6-2.691-6-6 2.691-6 6-6zm-.995-42.796a4.277 4.277 0 1 0 0-8.554 4.277 4.277 0 0 0 0 8.554zm-148 40a4.277 4.277 0 1 0 0-8.554 4.277 4.277 0 0 0 0 8.554zm164.995 42.796h-86c-2.211 0-4 1.791-4 4H109.09c.448-1.257.737-2.591.737-4 0-6.617-5.383-12-12-12h-4c0-6.617-5.383-12-12-12h-24c-6.617 0-12 5.383-12 12h-1.09c-6.016 0-10.91 4.895-10.91 10.91v5.09h-7.656a3.998 3.998 0 0 0-3.949 4.625c1.244 7.882 5.368 15.864 11.605 22.546v4.829c0 6.617 5.383 12 12 12 3.204 0 6.103-1.28 8.257-3.333 5.789 2.173 11.798 3.333 17.915 3.333 11.898 0 23.426-3.416 32.461-9.621l1.145-.789c9.262-6.369 19.754-13.59 30.129-13.59h38.094c0 2.209 1.789 4 4 4h86c7.719 0 14-6.281 14-14s-6.282-14-14-14zm-232.563 12h2.562v5.648c-1.025-1.856-1.923-3.741-2.562-5.648zm14.563 28c-2.207 0-4-1.795-4-4v-37.09a2.913 2.913 0 0 1 2.91-2.91h6.199a4 4 0 0 0 3.457-6.014c-.375-.645-.566-1.312-.566-1.986 0-2.205 1.793-4 4-4h24c2.207 0 4 1.795 4 4 0 .674-.191 1.342-.566 1.986a4 4 0 0 0 3.457 6.014h9.109c2.207 0 4 1.795 4 4s-1.793 4-4 4h-44c-2.211 0-4 1.791-4 4v28c0 2.205-1.793 4-4 4zm89.906-24c-12.863 0-24.445 7.969-34.664 15l-1.141.785c-7.715 5.297-17.633 8.215-27.93 8.215-4.877 0-9.675-.884-14.321-2.53.061-.487.149-.967.149-1.47v-24h116v4zm128.094 4h-82v-12h82c3.309 0 6 2.691 6 6s-2.692 6-6 6zm-220 36c-5.516 0-10 4.486-10 10v8c0 5.514 4.484 10 10 10s10-4.486 10-10v-8c0-5.514-4.485-10-10-10zm2 18c0 1.104-.898 2-2 2s-2-.896-2-2v-8c0-1.104.898-2 2-2s2 .896 2 2zm61.746-132.945l24 16.375a3.996 3.996 0 0 0 4.508 0l21.746-14.837 21.746 14.837a3.996 3.996 0 0 0 4.508 0l24-16.375a3.997 3.997 0 0 0 1.746-3.305V95.062a3.998 3.998 0 0 0-1.781-3.328l-22.219-14.812v-17.86a3.998 3.998 0 0 0-1.781-3.328l-24-16a4.003 4.003 0 0 0-4.438 0l-24 16a3.998 3.998 0 0 0-1.781 3.328v17.859l-22.219 14.812a3.998 3.998 0 0 0-1.781 3.328v19.625a4 4 0 0 0 1.746 3.306zm94.254-5.418l-20 13.646-20-13.646V97.203l20-13.334 20 13.334zm-44-64.705l20 13.334v15.719l-20 13.333-20-13.333V61.203zm-44 49.334l20-13.334 20 13.334v15.371l-20 13.646-20-13.646z"></path>
    <circle cx="149.828" cy="64.937" r="4"></circle>
  </symbol>
</svg>